<?xml version="1.0" standalone="no"?>
<!DOCTYPE svg PUBLIC "-//W3C//DTD SVG 20010904//EN"
 "http://www.w3.org/TR/2001/REC-SVG-20010904/DTD/svg10.dtd">
<svg version="1.0" xmlns="http://www.w3.org/2000/svg"
 width="458.000000pt" height="959.000000pt" viewBox="0 0 458.000000 959.000000"
 preserveAspectRatio="xMidYMid meet">

<g transform="translate(0.000000,959.000000) scale(0.100000,-0.100000)"
fill="#000000" stroke="none">
<path d="M2143 9455 c-64 -18 -129 -49 -163 -80 -14 -12 -56 -33 -95 -45 -94
-30 -149 -63 -174 -104 -28 -45 -27 -58 2 -16 12 18 33 41 47 52 32 23 130 59
130 47 0 -5 -3 -9 -8 -9 -11 0 -84 -62 -79 -67 3 -2 36 18 73 45 93 66 184 92
332 95 76 1 104 5 89 11 -35 14 -189 9 -247 -8 -65 -19 -75 -14 -23 12 105 53
212 65 275 31 12 -7 27 -12 32 -11 14 4 46 -30 46 -50 0 -22 23 -24 41 -2 10
12 24 15 59 11 56 -7 102 -26 93 -40 -3 -6 -1 -7 5 -3 6 4 26 -7 44 -25 23
-22 27 -29 13 -24 -11 4 -47 9 -80 11 l-60 4 57 -15 c77 -19 131 -48 186 -98
41 -38 43 -39 27 -12 -17 27 -15 26 24 -10 41 -39 71 -83 71 -105 0 -6 -12 2
-26 17 l-27 28 27 -35 c28 -36 56 -92 56 -110 0 -17 -14 -11 -30 14 -24 38
-134 166 -142 166 -4 0 11 -26 35 -59 23 -32 46 -58 50 -57 5 0 36 -44 70 -99
34 -55 78 -122 97 -150 l34 -50 8 35 c14 64 -22 158 -81 214 -17 16 -40 55
-52 85 -29 80 -64 126 -121 161 -27 17 -73 56 -101 86 -81 86 -166 121 -226
91 -29 -15 -31 -14 -69 23 -25 23 -57 41 -85 49 -56 14 -69 13 -134 -4z m842
-601 c9 -19 15 -49 13 -66 -3 -31 -5 -29 -50 49 -27 44 -48 91 -48 104 1 23 3
22 35 -14 18 -21 41 -54 50 -73z"/>
<path d="M2330 9389 c0 -9 7 -22 15 -29 19 -16 19 0 0 26 -12 16 -14 16 -15 3z"/>
<path d="M2275 9343 c17 -8 42 -27 58 -41 25 -24 36 -22 19 4 -8 14 -82 54
-97 54 -5 -1 4 -8 20 -17z"/>
<path d="M2455 9330 c-3 -5 15 -7 47 -3 70 8 74 13 10 13 -28 0 -53 -4 -57
-10z"/>
<path d="M2410 9305 c-8 -9 -8 -15 -2 -15 12 0 26 19 19 26 -2 2 -10 -2 -17
-11z"/>
<path d="M2082 9279 c-63 -25 -65 -36 -2 -14 83 29 220 11 220 -29 0 -12 41
-46 55 -46 15 0 -7 74 -27 90 -33 26 -176 26 -246 -1z"/>
<path d="M2408 9264 c-17 -9 -28 -23 -28 -35 0 -18 4 -20 28 -14 15 4 44 8 65
9 20 0 37 2 37 4 0 12 -58 21 -82 13 -15 -6 -28 -6 -28 -1 0 4 14 13 30 19 17
5 30 12 30 15 0 10 -24 6 -52 -10z"/>
<path d="M1825 9223 c-107 -48 -212 -117 -236 -156 -10 -18 -28 -60 -40 -94
-11 -34 -32 -74 -47 -89 -23 -23 -24 -25 -5 -15 27 14 63 63 63 87 0 45 43
104 111 154 38 28 69 47 69 42 0 -4 -22 -29 -49 -56 -26 -26 -59 -71 -71 -99
-47 -106 -56 -120 -108 -160 -29 -22 -74 -46 -100 -54 l-47 -13 63 3 c34 2 62
2 62 1 0 -2 -10 -19 -21 -39 -16 -27 -20 -46 -16 -76 6 -49 31 -89 55 -89 16
1 16 1 -1 11 -47 28 -37 105 19 147 16 12 24 22 18 22 -6 0 -23 -9 -38 -21
-27 -21 -35 -14 -13 13 6 9 24 18 38 20 24 4 26 2 23 -21 -2 -14 -8 -60 -12
-101 -11 -97 -42 -158 -83 -167 -20 -4 -27 -9 -20 -16 13 -13 76 0 91 18 21
26 27 17 22 -39 -4 -49 9 -96 26 -96 4 0 5 25 4 55 -3 35 0 55 7 55 6 0 11 -8
11 -17 0 -44 103 -208 130 -208 31 0 24 -71 -10 -105 -17 -17 -17 -20 -4 -20
9 0 32 16 51 35 20 20 36 34 37 33 0 -2 7 -12 13 -23 41 -66 43 -71 27 -91
-13 -18 -14 -17 -8 11 8 35 5 33 -24 -17 -26 -46 -9 -51 37 -12 17 14 31 21
31 16 0 -6 12 -24 26 -41 14 -17 23 -38 20 -46 -4 -11 2 -15 23 -15 36 0 41
-15 41 -145 0 -120 -16 -163 -81 -218 -68 -58 -240 -140 -401 -191 -156 -49
-209 -80 -276 -162 -44 -53 -58 -102 -87 -299 -45 -298 -119 -689 -151 -790
-9 -27 -47 -113 -85 -190 -86 -175 -117 -267 -163 -475 -45 -202 -47 -207
-104 -349 -59 -147 -75 -169 -140 -195 -30 -12 -86 -51 -133 -91 -53 -47 -102
-79 -144 -95 -77 -32 -95 -46 -95 -76 0 -51 74 -67 180 -40 30 8 56 13 58 11
2 -2 -12 -35 -32 -75 -35 -70 -68 -117 -133 -193 -37 -42 -42 -76 -15 -100 32
-29 63 -20 115 31 54 52 54 51 14 -26 -33 -63 -32 -101 3 -119 36 -18 78 10
110 72 l25 50 5 -50 c5 -49 5 -50 40 -50 28 0 38 6 57 34 13 19 28 53 35 75
15 55 32 72 23 24 -9 -46 0 -75 25 -83 50 -16 83 48 95 181 7 72 13 85 73 164
42 56 62 126 62 217 0 69 3 78 41 139 108 170 344 638 384 760 13 39 30 118
40 175 18 119 32 168 69 257 31 74 100 323 111 400 4 28 11 52 16 52 5 0 9 -7
9 -16 0 -8 18 -80 39 -158 101 -369 95 -608 -24 -936 -127 -350 -191 -707
-202 -1120 -6 -249 3 -410 44 -760 22 -187 27 -270 27 -490 1 -281 1 -282 -60
-615 -62 -336 -61 -541 2 -961 45 -302 53 -421 43 -620 -8 -162 -42 -355 -88
-504 -26 -83 -26 -103 1 -133 39 -42 208 -93 343 -103 108 -8 159 50 159 181
0 115 -24 335 -45 418 -17 69 -18 83 -7 130 9 35 11 75 6 122 -14 141 21 454
76 673 73 290 102 540 93 811 l-5 164 34 104 c19 57 42 149 50 206 42 275 99
603 139 801 61 295 75 415 75 622 l0 174 65 0 65 0 0 -102 c0 -230 48 -502
190 -1083 11 -44 35 -167 55 -274 39 -213 63 -309 100 -400 23 -56 25 -74 25
-218 0 -262 28 -433 125 -773 71 -250 105 -477 105 -700 -1 -80 0 -163 0 -185
1 -22 -1 -157 -5 -300 -6 -259 -6 -260 17 -299 13 -22 40 -48 61 -59 35 -18
45 -19 95 -8 32 6 73 13 93 15 20 2 45 9 57 15 11 6 29 11 39 11 26 0 124 48
139 68 20 26 17 53 -20 164 -19 57 -39 130 -46 163 -6 33 -22 95 -36 137 -38
126 -39 433 0 781 20 180 26 289 26 445 0 234 -5 274 -61 495 -92 368 -93 376
-94 722 0 226 5 369 19 525 29 320 27 729 -3 955 -35 268 -64 393 -157 676
-129 391 -143 450 -144 595 0 131 14 226 62 429 17 72 33 145 35 163 6 39 23
43 23 5 0 -49 35 -163 103 -338 53 -137 69 -193 82 -285 10 -63 24 -140 33
-170 24 -89 248 -516 423 -809 36 -60 39 -70 39 -141 0 -95 10 -126 71 -215
44 -66 48 -76 58 -167 13 -113 25 -146 58 -154 35 -9 53 12 53 64 0 56 10 46
33 -30 17 -55 61 -108 91 -108 16 0 46 32 46 49 0 6 17 -6 38 -29 41 -42 85
-53 110 -28 17 17 15 70 -3 94 -24 32 -18 51 8 26 13 -13 38 -27 56 -32 27 -7
36 -5 52 11 29 29 19 59 -48 148 -50 66 -137 220 -129 228 1 2 27 -1 56 -7
113 -22 174 -4 168 48 -2 23 -15 33 -78 63 -45 22 -103 61 -144 99 -44 40 -96
75 -143 96 -70 32 -75 37 -97 86 -41 94 -113 303 -131 379 -71 312 -88 362
-187 564 -74 150 -82 174 -112 337 -14 73 -41 210 -60 303 -19 94 -46 244 -61
335 -33 201 -54 259 -114 323 -55 59 -119 92 -271 142 -205 66 -317 123 -394
201 -62 63 -76 103 -76 225 0 100 1 107 25 129 14 13 25 19 25 13 0 -6 10 -13
21 -16 17 -4 19 -3 10 6 -16 16 -14 53 4 88 l16 30 26 -21 c14 -11 34 -20 45
-20 19 0 19 1 -1 26 -36 46 -25 127 19 143 16 5 36 20 44 33 20 31 66 161 66
187 0 11 5 23 10 26 14 9 12 -43 -4 -88 -10 -28 -11 -35 -2 -27 26 21 45 113
49 234 2 79 3 83 14 53 14 -40 16 -117 3 -151 -5 -15 -6 -26 -1 -26 27 0 38
123 17 185 -6 18 -3 20 43 20 62 0 90 20 30 21 -30 1 -49 9 -72 30 l-31 29 18
-28 c10 -16 16 -31 13 -33 -8 -8 -67 56 -87 95 -10 20 -19 33 -20 29 0 -12 33
-78 40 -78 9 0 10 -7 16 -135 l5 -110 -31 52 c-22 39 -43 59 -78 77 -61 31
-122 95 -132 138 -8 32 -8 32 -9 -13 -1 -25 3 -59 8 -75 5 -16 12 -42 15 -59
l6 -30 -20 24 c-11 13 -20 19 -20 14 0 -13 40 -49 40 -37 1 5 7 -3 16 -18 8
-15 24 -32 35 -39 19 -10 20 -9 9 10 -9 19 -7 23 25 38 33 16 36 16 52 0 33
-32 13 -183 -35 -272 -24 -44 -31 -50 -55 -47 -23 3 -30 -1 -35 -20 -11 -42
-91 -193 -123 -232 l-32 -38 2 -127 c2 -113 5 -130 26 -168 57 -97 197 -183
420 -258 167 -56 228 -85 276 -129 74 -69 99 -125 124 -291 22 -145 64 -377
85 -475 10 -47 26 -123 35 -170 32 -165 59 -246 130 -397 88 -184 116 -265
154 -448 19 -93 48 -192 86 -290 99 -258 93 -247 165 -275 41 -17 90 -49 144
-95 46 -39 110 -83 143 -98 81 -36 92 -51 58 -73 -27 -18 -25 -18 -189 13 -24
5 -27 3 -23 -13 3 -11 11 -37 16 -60 10 -36 43 -88 161 -251 33 -46 31 -73 -6
-73 -26 0 -112 81 -166 157 -40 55 -48 48 -15 -14 58 -109 98 -197 95 -211 -2
-8 -11 -20 -20 -26 -14 -8 -23 -5 -47 18 -17 16 -37 43 -45 60 -8 17 -31 67
-52 111 -29 63 -38 75 -42 57 -2 -13 9 -57 23 -97 30 -82 28 -125 -5 -125 -28
0 -53 45 -86 156 -16 52 -33 93 -39 91 -5 -2 -12 -40 -15 -85 -6 -85 -11 -98
-33 -89 -14 5 -29 69 -43 177 -7 61 -24 99 -62 145 -46 55 -62 103 -62 195 l0
85 -76 130 c-101 173 -233 413 -304 555 -64 128 -94 216 -104 305 -12 104 -26
159 -67 266 -91 234 -132 371 -144 488 -9 76 -16 67 -39 -49 -10 -47 -33 -146
-52 -220 -44 -177 -53 -234 -60 -360 -8 -138 7 -235 60 -400 181 -555 200
-627 238 -905 31 -234 33 -721 3 -1050 -14 -157 -20 -295 -19 -480 1 -258 1
-262 37 -441 20 -100 48 -220 61 -268 53 -181 61 -246 60 -481 -1 -162 -8
-287 -28 -475 -14 -140 -27 -298 -28 -350 -3 -166 9 -352 27 -400 9 -25 31
-106 50 -180 19 -74 43 -161 55 -194 19 -52 19 -60 6 -81 -16 -24 -109 -60
-132 -51 -8 3 -14 1 -14 -4 0 -11 -66 -33 -83 -27 -6 2 -27 -2 -46 -9 -57 -23
-108 -18 -141 14 -48 48 -52 83 -39 369 6 142 7 278 3 303 -4 25 -6 110 -5
190 3 218 -32 437 -113 697 -76 243 -106 430 -111 685 -4 201 -5 208 -34 281
-40 100 -54 159 -91 377 -18 102 -52 266 -77 364 -113 454 -150 669 -161 929
-6 131 -11 170 -22 178 -8 5 -46 8 -85 7 l-70 -3 -7 -202 c-8 -264 -18 -333
-123 -843 -20 -96 -51 -280 -70 -408 -37 -248 -42 -274 -80 -392 -23 -71 -25
-91 -28 -360 -4 -254 -7 -301 -30 -430 -15 -80 -31 -161 -37 -180 -18 -59 -59
-253 -76 -362 -11 -63 -18 -182 -21 -308 -2 -113 -7 -221 -11 -240 -6 -24 -3
-56 10 -105 10 -38 26 -153 35 -254 21 -241 9 -294 -72 -321 -23 -8 -45 -8
-76 0 -24 6 -61 12 -82 15 -52 6 -78 21 -70 43 5 16 5 16 -8 0 -13 -16 -17
-16 -69 2 -85 29 -88 37 -51 182 17 68 42 188 56 268 22 129 24 167 21 350 -3
171 -9 244 -39 445 -70 471 -71 646 -3 1020 19 105 40 231 47 280 15 110 15
508 1 625 -51 407 -62 563 -62 845 0 297 16 467 66 725 26 134 43 194 134 475
87 270 95 313 94 500 -1 135 -5 178 -27 275 -35 152 -123 445 -129 434 -3 -5
-9 -29 -12 -54 -24 -160 -83 -381 -136 -510 -28 -68 -45 -137 -70 -280 -19
-111 -48 -188 -156 -407 -107 -218 -145 -288 -243 -453 -55 -94 -56 -96 -56
-175 -1 -106 -15 -150 -74 -224 -45 -56 -50 -67 -56 -129 -11 -125 -31 -182
-61 -182 -11 0 -14 22 -14 100 0 55 -3 100 -8 100 -4 0 -18 -30 -31 -67 -46
-131 -79 -195 -98 -191 -26 5 -28 63 -5 134 27 83 34 114 23 114 -4 0 -20 -26
-35 -57 -35 -79 -90 -171 -114 -196 -25 -24 -52 -16 -52 16 0 13 24 73 54 133
30 60 52 112 49 117 -2 4 -28 -19 -56 -50 -119 -133 -146 -152 -167 -114 -8
16 -2 29 33 73 98 121 150 208 162 271 9 44 9 44 -95 17 -93 -24 -113 -25
-134 -2 -15 18 -15 20 1 34 10 8 44 25 75 37 32 13 85 48 124 81 38 33 103 78
146 101 73 40 80 46 107 103 44 94 117 302 136 391 59 271 84 349 164 510 94
192 89 176 150 450 50 224 62 289 106 593 28 195 42 231 116 302 56 54 101 76
264 126 204 64 382 167 430 248 22 38 24 53 26 175 l1 133 -45 47 c-63 65
-123 154 -143 213 -16 49 -17 50 -50 44 -29 -6 -35 -3 -48 23 -17 31 -66 194
-66 216 0 8 10 17 23 21 58 18 190 134 222 194 11 21 -5 3 -38 -42 -32 -43
-118 -99 -125 -80 -3 9 -9 9 -24 1 -30 -16 -34 -2 -7 27 l24 27 -27 -18 c-16
-9 -28 -22 -28 -27 0 -11 -82 -110 -87 -105 -2 2 4 23 12 47 l16 44 -23 -21
c-13 -11 -34 -26 -47 -33 -22 -11 -23 -11 -16 6 4 11 13 37 20 60 22 70 65
145 113 198 47 50 47 50 7 17 -22 -18 -50 -45 -62 -60 -16 -18 -22 -21 -23
-11 0 20 57 74 142 133 57 40 108 93 152 157 6 8 -27 -23 -74 -70 -82 -82
-117 -105 -227 -149 -53 -22 -84 -27 -82 -13 0 4 27 29 60 55 32 26 77 71 100
100 22 29 75 88 117 131 42 44 62 69 44 56 -18 -14 -69 -66 -113 -117 -45 -51
-83 -93 -85 -93 -11 0 10 79 32 116 29 52 116 132 194 179 33 20 60 38 60 41
0 2 -1 4 -2 3 -2 0 -39 -17 -83 -36z m929 -589 c14 -20 16 -31 8 -47 -9 -21
-11 -20 -26 15 -26 62 -17 79 18 32z m-1020 -79 c-7 -18 -36 -35 -58 -35 -26
0 -18 15 17 33 41 20 48 21 41 2z m-80 -150 c7 -34 -7 -15 -19 25 -5 16 -4 22
3 15 5 -5 12 -23 16 -40z m126 -204 c0 -11 -4 -23 -10 -26 -6 -4 -10 5 -10 19
0 14 5 26 10 26 6 0 10 -9 10 -19z"/>
<path d="M2211 9199 c-103 -30 -216 -150 -235 -249 -5 -27 -2 -22 17 21 29 68
55 107 102 148 53 47 112 73 164 73 33 0 41 2 26 8 -25 11 -32 10 -74 -1z"/>
<path d="M2465 9180 c27 -12 43 -12 25 0 -8 5 -22 9 -30 9 -10 0 -8 -3 5 -9z"/>
<path d="M2285 9148 c-11 -6 -22 -14 -25 -17 -3 -3 -11 -6 -19 -6 -8 0 -17 -7
-19 -15 -4 -12 -2 -13 9 -3 8 6 19 12 24 14 6 1 24 11 40 21 32 19 23 25 -10
6z"/>
<path d="M2541 9158 c2 -2 24 -21 49 -43 l45 -40 -40 43 c-21 23 -43 42 -49
42 -5 0 -7 -1 -5 -2z"/>
<path d="M2400 9130 c0 -5 6 -10 14 -10 30 0 76 -51 90 -101 18 -60 11 -112
-29 -212 -24 -59 -118 -184 -99 -132 3 11 13 37 20 57 22 60 27 138 15 217
-12 75 -36 136 -50 127 -4 -3 -11 -67 -14 -143 -7 -168 -30 -255 -84 -314 -38
-42 -54 -46 -30 -7 18 27 37 115 36 161 0 29 -2 27 -16 -17 -19 -65 -57 -118
-135 -190 -34 -33 -56 -55 -46 -50 23 13 98 84 141 135 21 23 37 39 37 35 0
-22 -58 -121 -83 -142 -16 -14 -27 -27 -24 -31 8 -7 40 14 101 68 78 69 109
156 122 347 10 147 28 118 29 -46 0 -112 -3 -133 -23 -177 -13 -27 -35 -62
-50 -78 l-26 -27 32 11 c53 18 127 109 161 199 17 44 31 90 31 104 0 22 20 50
20 29 2 -64 24 -204 40 -246 21 -55 71 -117 113 -138 12 -6 4 6 -19 28 -23 21
-51 57 -63 80 -27 54 -51 154 -51 218 0 66 -52 196 -92 230 -30 25 -68 34 -68
15z"/>
<path d="M2312 9108 c-36 -18 -60 -68 -68 -142 -5 -47 -4 -67 3 -63 6 4 13 34
15 67 5 64 27 107 66 125 12 5 22 13 22 17 0 10 -10 9 -38 -4z"/>
<path d="M2186 8931 c-14 -26 -37 -63 -52 -82 -28 -34 -28 -34 -2 -11 25 22
95 142 84 142 -3 0 -17 -22 -30 -49z"/>
<path d="M1961 8894 c0 -11 3 -14 6 -6 3 7 2 16 -1 19 -3 4 -6 -2 -5 -13z"/>
<path d="M2576 8870 c3 -19 10 -42 15 -50 5 -9 6 -2 2 20 -3 19 -10 42 -15 50
-6 10 -7 3 -2 -20z"/>
<path d="M2228 8797 c-21 -40 -46 -93 -57 -119 -13 -32 -34 -57 -68 -82 -52
-39 -76 -47 -49 -17 24 27 63 129 42 112 -8 -7 -15 -16 -14 -19 2 -21 -8 -38
-62 -100 -53 -62 -112 -104 -126 -89 -3 2 10 14 28 25 33 20 81 68 108 107 8
11 -9 -3 -37 -32 -59 -59 -117 -92 -171 -97 -20 -2 -43 -4 -49 -5 -7 0 -13 -8
-13 -16 0 -8 -7 -15 -17 -15 -9 0 -14 -3 -10 -6 3 -3 32 2 64 12 32 9 81 18
109 18 42 1 62 9 109 40 106 70 141 110 201 233 62 125 71 165 12 50z"/>
<path d="M1951 8844 c0 -11 3 -14 6 -6 3 7 2 16 -1 19 -3 4 -6 -2 -5 -13z"/>
<path d="M2682 8840 c0 -14 2 -19 5 -12 2 6 2 18 0 25 -3 6 -5 1 -5 -13z"/>
<path d="M1929 8787 c-9 -18 -33 -42 -55 -54 -29 -17 -34 -23 -18 -23 11 0 27
6 36 13 22 18 60 76 56 86 -2 5 -10 -5 -19 -22z"/>
<path d="M2780 8766 c19 -21 49 -47 65 -58 35 -25 29 -18 -45 48 -44 39 -48
41 -20 10z"/>
<path d="M1871 8566 c-13 -7 -19 -16 -14 -19 6 -4 18 2 28 13 21 23 19 24 -14
6z"/>
<path d="M1775 8530 c-36 -13 -43 -19 -25 -19 14 0 41 8 60 19 43 23 31 23
-35 0z"/>
<path d="M2720 8541 c0 -5 5 -13 10 -16 6 -3 10 -2 10 4 0 5 -4 13 -10 16 -5
3 -10 2 -10 -4z"/>
<path d="M2849 8498 c-3 -22 -1 -34 4 -29 5 5 7 21 5 37 -3 27 -4 26 -9 -8z"/>
<path d="M2803 8424 c-6 -13 -7 -24 -3 -24 9 0 25 39 18 45 -2 2 -8 -7 -15
-21z"/>
<path d="M2065 7895 c60 -37 152 -65 214 -65 87 0 89 15 3 16 -76 1 -168 27
-217 60 -11 8 -24 14 -30 14 -5 0 8 -12 30 -25z"/>
</g>
</svg>
