<?xml version="1.0" standalone="no"?>
<!DOCTYPE svg PUBLIC "-//W3C//DTD SVG 20010904//EN"
 "http://www.w3.org/TR/2001/REC-SVG-20010904/DTD/svg10.dtd">
<svg version="1.0" xmlns="http://www.w3.org/2000/svg"
 width="452.000000pt" height="953.000000pt" viewBox="0 0 452.000000 953.000000"
 preserveAspectRatio="xMidYMid meet">

<g transform="translate(0.000000,953.000000) scale(0.100000,-0.100000)"
fill="#000000" stroke="none">
<path d="M2074 9326 c-48 -15 -124 -57 -124 -67 0 -4 -34 -24 -75 -43 -131
-64 -293 -210 -330 -299 -8 -20 -15 -53 -14 -74 0 -30 2 -34 9 -18 5 11 11 33
15 48 7 34 66 100 139 156 71 55 81 52 24 -6 -25 -27 -57 -64 -70 -83 -51 -77
-141 -191 -165 -210 -36 -28 -71 -35 -107 -22 l-30 12 21 -22 c15 -15 38 -23
76 -26 l55 -4 -14 -27 c-17 -33 -17 -69 0 -100 12 -22 13 -20 9 25 -4 39 -1
54 15 74 26 32 38 21 23 -21 -16 -45 -14 -122 4 -145 8 -10 15 -40 15 -65 0
-31 9 -64 29 -100 16 -30 35 -74 41 -97 17 -55 41 -77 69 -63 27 15 28 15 36
-16 8 -33 35 -73 97 -141 42 -46 48 -59 48 -96 0 -29 -7 -52 -21 -70 -22 -28
-16 -32 26 -16 l26 10 -6 -107 c-5 -72 -13 -118 -24 -138 -47 -83 -257 -203
-479 -274 -144 -46 -192 -72 -254 -139 -80 -85 -94 -126 -123 -362 -23 -185
-94 -623 -116 -718 -10 -46 -45 -138 -76 -205 -30 -67 -64 -141 -74 -165 -29
-66 -75 -233 -105 -377 -14 -71 -49 -199 -76 -283 -52 -162 -78 -206 -141
-236 -18 -8 -73 -45 -122 -81 -49 -37 -117 -79 -152 -95 -58 -26 -63 -31 -63
-60 0 -26 6 -33 33 -45 27 -11 43 -11 109 3 43 9 80 13 83 10 10 -10 -61 -142
-120 -225 -39 -53 -55 -85 -55 -107 0 -71 55 -76 117 -11 23 25 44 45 46 45 3
0 -6 -21 -19 -47 -31 -61 -32 -111 -2 -122 34 -13 75 7 100 47 21 35 22 35 28
13 9 -38 33 -48 65 -27 27 18 64 86 65 118 0 9 5 20 10 23 7 4 8 -7 4 -32 -7
-46 12 -69 47 -58 30 10 55 74 68 175 10 73 16 92 51 142 61 86 70 115 70 223
0 108 -1 106 110 295 110 188 238 455 285 595 15 42 35 136 45 209 13 92 30
160 54 222 37 95 90 295 101 377 4 27 9 47 11 44 10 -9 94 -261 116 -346 18
-70 22 -111 22 -226 -1 -173 -17 -259 -88 -477 -147 -451 -165 -533 -187 -883
-10 -162 -9 -231 5 -462 9 -150 23 -346 32 -435 42 -457 25 -875 -46 -1158
-47 -186 -61 -299 -61 -492 0 -202 17 -402 58 -678 17 -118 27 -228 28 -337 2
-89 6 -166 9 -172 4 -6 2 -46 -3 -90 -15 -114 -40 -151 -135 -195 -174 -80
-133 -150 139 -242 234 -79 355 -38 355 120 0 34 -7 113 -15 176 -25 207 -23
498 5 695 21 147 32 194 99 419 62 211 73 306 72 613 l-1 261 35 95 c24 68 43
151 65 293 17 110 58 341 91 514 33 173 67 349 74 390 12 65 55 406 55 439 0
7 25 11 74 11 l73 0 6 -62 c7 -78 41 -249 106 -533 53 -236 91 -427 116 -595
32 -208 57 -326 92 -430 35 -104 36 -107 34 -255 -4 -263 24 -454 108 -734 77
-254 114 -482 118 -711 1 -102 5 -210 9 -241 3 -30 1 -123 -5 -206 -15 -212 2
-260 105 -283 88 -21 398 69 477 138 10 9 17 29 17 48 0 38 -31 66 -121 108
-76 35 -95 72 -102 196 -3 52 -11 134 -18 183 -14 91 -14 90 26 582 19 231 19
534 0 700 -8 76 -32 198 -56 290 -72 281 -71 271 -66 570 4 172 13 335 26 450
31 276 44 574 38 820 -11 395 -36 516 -222 1070 -36 105 -72 233 -81 285 -28
162 -2 369 71 580 20 58 40 120 45 138 11 43 20 52 20 21 0 -45 81 -287 135
-407 13 -29 38 -118 55 -197 17 -79 39 -168 49 -197 35 -100 166 -342 355
-652 l89 -146 4 -91 c4 -100 19 -145 77 -233 25 -38 36 -71 46 -131 15 -98 36
-152 63 -167 17 -9 24 -7 39 12 10 12 18 39 19 59 l1 36 9 -38 c14 -60 47
-115 78 -132 38 -19 59 -11 69 27 l7 29 32 -44 c40 -58 87 -72 116 -36 22 27
18 66 -13 109 -31 44 -24 46 20 6 50 -45 95 -49 110 -11 13 34 2 60 -74 165
-56 78 -114 195 -103 206 2 3 47 -1 99 -8 86 -11 98 -10 122 5 33 22 35 61 4
81 -13 8 -49 24 -80 36 -37 14 -88 46 -140 91 -57 47 -100 74 -137 86 -36 12
-60 27 -75 48 -41 56 -176 426 -176 482 0 36 -57 208 -102 308 -141 311 -162
364 -184 464 -36 157 -79 376 -109 551 -46 272 -54 304 -91 378 -53 107 -121
155 -318 222 -192 65 -361 146 -419 199 -72 67 -81 94 -73 233 8 148 12 158
40 116 11 -17 27 -33 35 -36 8 -3 4 8 -9 26 -29 39 -22 68 35 147 70 95 93
117 114 110 23 -7 49 25 111 138 33 62 42 89 42 124 -1 25 -3 48 -6 50 -3 3 9
23 25 46 16 22 29 46 29 54 0 8 5 11 11 7 10 -6 9 -21 -7 -104 l-5 -25 15 25
c18 29 21 97 6 135 -13 35 -3 51 20 30 20 -18 80 -37 80 -25 0 4 -9 10 -19 13
-29 7 -58 62 -66 121 -4 28 -16 71 -26 95 -11 24 -17 46 -15 48 2 2 19 -5 37
-16 19 -12 48 -20 64 -20 l30 1 -31 8 c-66 15 -103 49 -141 126 -50 101 -128
178 -268 263 -38 24 -86 54 -105 68 -29 21 -43 24 -88 21 -32 -3 -64 -13 -80
-25 l-28 -21 -10 21 c-26 57 -138 83 -230 53z m175 -40 c12 -11 21 -15 21 -11
0 5 9 -1 20 -13 22 -23 45 -28 55 -12 3 6 15 10 26 10 14 0 18 -4 12 -12 -4
-7 5 -5 20 5 32 21 76 22 103 3 17 -13 14 -15 -39 -15 -33 0 -61 -2 -65 -5 -3
-3 29 -6 71 -6 42 0 78 -3 80 -7 3 -5 -27 -8 -67 -8 -47 -1 -81 -7 -101 -18
-38 -21 -19 -22 30 -1 34 14 44 14 109 -1 116 -25 243 -130 304 -251 12 -23
32 -55 46 -71 33 -40 66 -117 66 -155 0 -17 12 -51 26 -75 23 -39 23 -43 6
-34 -17 9 -70 132 -88 204 -3 15 -10 30 -15 33 -5 3 -4 -7 1 -22 6 -15 9 -33
6 -40 -3 -7 6 -44 20 -84 26 -79 31 -147 12 -173 -11 -14 -13 -6 -14 50 0 49
-7 80 -23 111 -12 23 -22 42 -24 42 -1 0 -2 -42 -2 -92 0 -104 -13 -161 -61
-263 -30 -64 -54 -137 -42 -125 3 3 20 40 38 83 24 57 36 77 47 73 8 -3 19 -6
24 -6 23 0 4 -63 -44 -149 -57 -102 -77 -120 -78 -74 0 24 -1 25 -9 8 -9 -23
-51 -64 -65 -64 -5 0 -11 -5 -14 -12 -2 -7 1 -9 8 -5 12 8 -84 -132 -119 -174
-12 -13 -26 -44 -33 -67 -6 -24 -15 -43 -19 -43 -10 0 -33 80 -30 105 1 11 12
42 24 68 18 40 36 57 105 103 85 56 139 113 130 136 -4 9 -6 7 -6 -4 -1 -25
-181 -175 -181 -150 0 4 15 34 34 65 19 31 33 57 31 57 -5 0 -107 -155 -125
-190 -7 -13 -21 -31 -30 -40 -10 -8 -26 -28 -35 -45 l-17 -30 24 28 c13 15 26
27 29 27 2 0 3 -17 1 -39 -4 -39 14 -87 41 -109 11 -9 13 -30 9 -87 -4 -66 -2
-81 22 -130 53 -107 232 -209 526 -299 187 -57 278 -152 315 -325 8 -39 28
-152 45 -253 80 -475 126 -649 231 -870 86 -182 120 -277 176 -488 19 -74 51
-175 70 -225 88 -232 98 -246 193 -284 30 -12 89 -49 130 -83 41 -33 100 -71
130 -85 81 -36 85 -38 85 -59 0 -17 -8 -19 -65 -18 -36 0 -91 4 -122 8 l-57 9
5 -39 c8 -56 55 -148 120 -233 69 -92 80 -117 55 -130 -28 -16 -79 28 -169
146 -57 74 -51 32 13 -92 56 -110 64 -147 33 -153 -29 -6 -76 51 -128 156 -28
56 -55 102 -60 102 -15 0 -13 -12 20 -101 34 -92 35 -124 5 -124 -28 0 -60 54
-91 151 -36 113 -54 113 -54 -1 0 -53 -4 -85 -11 -85 -17 0 -47 81 -62 166
-11 61 -23 95 -52 140 -49 76 -65 130 -65 219 0 84 4 75 -171 366 -68 113
-161 279 -207 370 -76 151 -84 174 -106 290 -26 132 -45 196 -103 344 -47 119
-101 293 -109 355 -4 28 -10 50 -14 50 -8 0 -36 -73 -70 -185 -12 -38 -31 -94
-41 -123 -28 -77 -59 -282 -59 -388 0 -117 28 -256 86 -425 200 -590 219 -693
218 -1209 -1 -271 -6 -395 -23 -580 -38 -418 -41 -453 -41 -590 0 -197 14
-302 70 -524 85 -337 97 -586 53 -1071 -25 -277 -21 -706 9 -803 15 -50 56
-91 117 -118 58 -26 101 -59 101 -79 0 -38 -177 -117 -332 -149 -96 -20 -131
-20 -168 -1 -58 30 -63 56 -51 261 8 130 8 197 1 230 -7 30 -8 93 -4 163 5 97
2 146 -21 301 -25 176 -80 417 -124 542 -53 154 -83 375 -83 618 0 147 -1 161
-34 270 -39 134 -56 213 -85 393 -12 73 -25 150 -29 172 -48 262 -74 392 -90
455 -44 174 -90 393 -106 507 l-18 122 -52 7 c-69 8 -132 -3 -138 -24 -3 -9
-8 -53 -11 -97 -10 -124 -24 -228 -51 -370 -14 -71 -40 -211 -59 -310 -19 -99
-57 -313 -85 -477 -32 -190 -61 -328 -80 -384 l-30 -89 0 -238 c0 -297 -16
-436 -71 -624 -108 -366 -124 -467 -123 -813 1 -177 7 -296 18 -390 15 -115
16 -141 4 -175 -29 -87 -137 -97 -333 -30 -138 46 -183 69 -197 100 -15 33 1
50 82 89 78 37 121 89 138 167 18 83 9 423 -17 594 -87 590 -88 863 -6 1220
40 173 53 264 66 465 11 170 11 230 -5 485 -9 159 -24 367 -33 460 -10 107
-16 279 -16 465 -1 270 2 310 26 465 27 182 69 344 142 552 72 208 96 307 106
443 15 197 -15 353 -116 600 -23 58 -46 120 -50 138 -11 54 -22 36 -29 -50
-12 -145 -48 -294 -111 -458 -21 -55 -40 -133 -54 -220 -11 -74 -27 -158 -36
-186 -38 -130 -192 -444 -340 -694 -62 -106 -65 -114 -59 -177 9 -85 -9 -154
-65 -247 -44 -72 -51 -91 -61 -171 -20 -156 -64 -186 -61 -42 1 49 -2 87 -7
87 -5 0 -20 -28 -32 -62 -46 -131 -62 -167 -77 -172 -38 -15 -41 15 -13 124
11 41 20 81 20 88 0 22 -17 4 -25 -25 -11 -46 -75 -176 -97 -200 -12 -13 -30
-23 -40 -23 -31 0 -22 59 27 171 51 117 48 109 36 109 -5 0 -20 -17 -32 -37
-28 -46 -106 -134 -134 -150 -21 -12 -45 -1 -45 21 0 7 25 48 56 92 30 43 66
99 78 124 27 53 60 149 53 156 -2 3 -47 -5 -100 -17 -101 -23 -127 -21 -127
10 0 13 15 25 53 40 30 12 85 47 123 77 38 31 100 74 138 97 41 24 78 56 94
79 32 49 101 273 142 464 37 174 89 343 131 427 72 142 107 237 132 357 43
203 57 287 77 445 58 455 64 483 121 555 59 75 116 107 289 166 214 72 328
131 418 218 64 60 75 87 80 199 4 92 6 98 28 103 13 3 24 13 24 21 0 13 -3 13
-15 3 -23 -19 -31 -3 -16 33 30 71 22 145 -19 182 -18 17 -18 16 1 -21 27 -54
25 -110 -7 -156 -15 -21 -27 -38 -28 -38 -1 0 0 20 2 44 4 51 -2 64 -79 171
-31 44 -65 99 -74 123 -17 41 -18 42 -36 26 -25 -23 -45 -12 -59 33 -7 21 -23
57 -36 80 -26 45 -31 92 -12 123 9 14 9 24 1 42 -7 13 -14 32 -16 43 -3 11 -6
0 -7 -25 -1 -35 -3 -41 -10 -25 -15 35 -10 138 9 193 l18 54 -21 -7 c-11 -4
-41 -9 -66 -11 l-45 -5 31 14 c17 8 45 36 62 63 17 27 45 63 61 80 16 17 38
48 49 70 11 21 41 63 66 92 59 69 54 94 -13 56 -43 -25 -45 -25 -26 -5 29 33
111 91 135 96 11 2 26 7 33 10 6 4 -8 -13 -33 -36 -33 -32 -37 -38 -15 -24 46
29 146 85 152 85 3 0 -1 -8 -8 -17 -13 -16 -12 -17 3 -4 10 7 15 18 11 24 -4
6 0 8 11 4 9 -4 15 -3 12 2 -6 9 35 28 125 55 45 14 64 16 94 7 52 -14 58 -6
7 9 -41 13 -172 9 -207 -5 -14 -5 -17 -5 -10 3 40 42 214 54 254 18z m-209
-30 c0 -2 -18 -13 -40 -24 -22 -11 -40 -16 -40 -12 0 4 17 15 38 23 43 19 42
18 42 13z m811 -291 c16 -27 29 -54 29 -58 0 -19 -22 8 -65 81 -39 63 -42 72
-20 52 15 -14 40 -47 56 -75z m29 -394 c0 -26 -5 -62 -11 -80 -12 -35 -35 -44
-24 -8 4 12 9 48 12 80 7 69 23 76 23 8z"/>
<path d="M2265 9250 c-3 -5 -1 -10 4 -10 6 0 11 5 11 10 0 6 -2 10 -4 10 -3 0
-8 -4 -11 -10z"/>
<path d="M2075 9170 c-82 -43 -101 -64 -25 -28 63 30 72 31 193 15 28 -4 28
-4 8 16 -12 12 -38 21 -68 24 -40 4 -58 0 -108 -27z"/>
<path d="M2373 9137 c-29 -13 -29 -31 1 -70 24 -31 39 -77 52 -162 8 -46 11
-40 17 33 4 49 1 58 -34 110 -22 31 -39 60 -39 64 0 16 41 18 68 4 83 -43 139
-190 129 -336 -3 -56 -2 -68 5 -47 5 15 14 27 19 27 9 0 8 6 -17 145 -23 128
-66 197 -144 228 -26 11 -41 12 -57 4z"/>
<path d="M2190 9091 c-16 -16 -45 -32 -64 -35 -68 -13 -149 -97 -201 -211 -44
-96 -57 -168 -45 -260 8 -66 44 -164 56 -153 2 3 -3 19 -12 37 -23 46 -38 167
-30 235 11 84 94 245 149 289 46 37 77 52 77 36 0 -5 -15 -49 -34 -97 -18 -48
-36 -108 -39 -132 l-7 -45 14 45 c7 25 20 61 28 80 15 35 15 34 20 -68 3 -57
10 -108 16 -114 7 -7 7 2 0 33 -5 24 -8 80 -6 124 5 96 39 180 94 231 19 19
30 34 24 34 -6 0 -25 -13 -40 -29z"/>
<path d="M2657 9035 c39 -49 71 -130 83 -204 8 -53 8 -52 6 25 -3 76 -5 85
-39 131 -19 26 -46 57 -58 68 -15 14 -13 7 8 -20z"/>
<path d="M2355 9050 c3 -5 8 -10 11 -10 2 0 4 5 4 10 0 6 -5 10 -11 10 -5 0
-7 -4 -4 -10z"/>
<path d="M1759 9013 c-13 -16 -12 -17 4 -4 9 7 17 15 17 17 0 8 -8 3 -21 -13z"/>
<path d="M2181 8974 c-19 -72 -23 -139 -12 -197 11 -63 55 -173 79 -197 8 -8
3 8 -11 35 -59 121 -75 231 -48 345 12 55 6 66 -8 14z"/>
<path d="M1699 8823 c-11 -25 -18 -53 -17 -61 2 -8 13 13 25 47 26 72 21 81
-8 14z"/>
<path d="M1763 8740 c0 -30 2 -43 4 -27 2 15 2 39 0 55 -2 15 -4 2 -4 -28z"/>
<path d="M1671 8714 c0 -11 3 -14 6 -6 3 7 2 16 -1 19 -3 4 -6 -2 -5 -13z"/>
<path d="M1775 8655 c9 -48 62 -149 91 -175 30 -28 24 -13 -17 40 -15 19 -39
64 -53 100 -15 36 -25 52 -21 35z"/>
<path d="M2741 8664 c0 -11 3 -14 6 -6 3 7 2 16 -1 19 -3 4 -6 -2 -5 -13z"/>
<path d="M1616 8635 c-3 -9 -6 -29 -5 -43 1 -22 3 -19 10 12 10 40 6 60 -5 31z"/>
<path d="M1661 8559 c-1 -64 25 -146 66 -202 20 -26 38 -46 40 -43 3 3 -7 20
-21 38 -35 47 -56 100 -71 183 -12 66 -13 68 -14 24z"/>
<path d="M1611 8544 c0 -11 3 -14 6 -6 3 7 2 16 -1 19 -3 4 -6 -2 -5 -13z"/>
<path d="M1616 8512 c-3 -6 1 -28 10 -49 20 -48 29 -31 11 22 -8 23 -16 34
-21 27z"/>
<path d="M2687 8347 l-18 -32 21 21 c13 12 21 27 19 33 -2 6 -12 -4 -22 -22z"/>
<path d="M1688 8290 c-1 -28 0 -50 5 -50 4 0 7 23 7 50 0 65 -7 65 -12 0z"/>
<path d="M2595 8292 c-16 -26 -71 -88 -122 -138 -51 -51 -93 -95 -93 -98 0 -8
62 36 104 73 30 28 150 200 144 207 -2 2 -17 -18 -33 -44z"/>
<path d="M2419 8300 l-24 -21 33 16 c31 15 41 25 23 25 -5 0 -19 -9 -32 -20z"/>
<path d="M2105 8256 c15 -20 29 -36 31 -36 10 0 -20 48 -38 59 -16 10 -15 6 7
-23z"/>
<path d="M1910 8254 c0 -3 18 -32 41 -65 30 -45 36 -58 21 -50 -12 6 -24 16
-27 21 -4 6 -34 28 -68 50 -71 46 -44 21 78 -75 42 -33 93 -78 113 -101 21
-22 44 -44 52 -49 16 -9 3 8 -65 86 -22 25 -62 78 -90 117 -47 69 -55 78 -55
66z"/>
<path d="M2731 8224 c0 -11 3 -14 6 -6 3 7 2 16 -1 19 -3 4 -6 -2 -5 -13z"/>
<path d="M1814 8175 c10 -16 26 -36 35 -43 47 -37 101 -97 116 -129 10 -20 17
-59 17 -87 0 -46 1 -48 9 -21 6 21 4 46 -7 84 -13 45 -29 67 -102 140 -48 47
-78 73 -68 56z"/>
<path d="M2240 7935 c0 -17 -4 -45 -9 -63 -5 -17 -6 -32 -1 -32 5 0 11 8 13
18 3 10 5 6 6 -10 0 -16 6 -28 12 -28 8 0 10 17 5 56 -8 67 -25 107 -26 59z"/>
<path d="M2470 7939 c-7 -11 -10 -23 -7 -25 2 -2 9 7 15 21 14 30 7 33 -8 4z"/>
<path d="M2070 7922 c0 -18 -7 -49 -15 -70 l-15 -37 19 24 19 24 16 -31 c16
-31 43 -52 67 -52 7 0 -4 12 -24 28 -28 22 -37 36 -42 72 -8 60 -25 87 -25 42z"/>
<path d="M2010 7834 c-8 -14 -28 -32 -45 -39 -20 -9 -24 -14 -12 -14 20 -1 77
50 77 68 0 17 -6 13 -20 -15z"/>
<path d="M525 4619 c-43 -32 -61 -59 -29 -41 18 10 83 73 73 71 -2 0 -22 -14
-44 -30z"/>
</g>
</svg>
